<?xml version="1.0" encoding="UTF-8" standalone="no"?>
<!-- Created with Inkscape (http://www.inkscape.org/) -->

<svg
   xmlns:dc="http://purl.org/dc/elements/1.1/"
   xmlns:cc="http://creativecommons.org/ns#"
   xmlns:rdf="http://www.w3.org/1999/02/22-rdf-syntax-ns#"
   xmlns:svg="http://www.w3.org/2000/svg"
   xmlns="http://www.w3.org/2000/svg"
   xmlns:sodipodi="http://sodipodi.sourceforge.net/DTD/sodipodi-0.dtd"
   xmlns:inkscape="http://www.inkscape.org/namespaces/inkscape"
   width="67.559166mm"
   height="100.36768mm"
   viewBox="0 0 67.559166 100.36768"
   version="1.1"
   id="svg230"
   inkscape:version="0.92.3 (2405546, 2018-03-11)"
   sodipodi:docname="light-bulb.svg">
  <defs
     id="defs224" />
  <sodipodi:namedview
     id="base"
     pagecolor="#ffffff"
     bordercolor="#666666"
     borderopacity="1.0"
     inkscape:pageopacity="0.0"
     inkscape:pageshadow="2"
     inkscape:zoom="0.35"
     inkscape:cx="-710.90063"
     inkscape:cy="-596.04306"
     inkscape:document-units="mm"
     inkscape:current-layer="layer1"
     showgrid="false"
     fit-margin-top="0"
     fit-margin-left="0"
     fit-margin-right="0"
     fit-margin-bottom="0"
     inkscape:window-width="1280"
     inkscape:window-height="958"
     inkscape:window-x="-8"
     inkscape:window-y="-8"
     inkscape:window-maximized="1" />
  <metadata
     id="metadata227">
    <rdf:RDF>
      <cc:Work
         rdf:about="">
        <dc:format>image/svg+xml</dc:format>
        <dc:type
           rdf:resource="http://purl.org/dc/dcmitype/StillImage" />
        <dc:title></dc:title>
      </cc:Work>
    </rdf:RDF>
  </metadata>
  <g
     inkscape:label="Layer 1"
     inkscape:groupmode="layer"
     id="layer1"
     transform="translate(-196.02996,109.2374)">
    <path
       id="path3735"
       d="m 205.69421,-98.193229 c -5.7456,5.620472 -9.27173,13.18161 -9.63059,21.211032 -0.0132,0.298215 -0.0225,0.597763 -0.028,0.897978 -0.17325,9.578501 3.64175,18.265825 9.8939,24.514759 3.47201,3.469963 5.39702,8.19381 5.39894,13.10241 l 0.004,10.170176 36.99066,-0.01445 -0.004,-10.363195 c -0.002,-4.835133 1.93249,-9.463312 5.35405,-12.878863 6.12844,-6.116857 9.91904,-14.574396 9.91539,-23.917402 -0.007,-18.815917 -15.39738,-34.032606 -34.27397,-33.762426 -0.27616,0.004 -0.55166,0.0112 -0.82616,0.0217 -7.84216,0.30395 -15.26002,3.64859 -20.87009,9.13644 z"
       style="fill:#ffca3a;fill-opacity:1;stroke-width:0.33394113"
       inkscape:connector-curvature="0" />
    <path
       id="path3737"
       d="m 229.83166,-8.8697364 v 0 c -10.21259,0.004 -18.49456,-8.2718356 -18.49855,-18.4840886 l -3.7e-4,-0.943049 36.98297,-0.01445 2.7e-4,0.943049 c 0.003,10.212253 -8.27184,18.4945586 -18.48443,18.4985486 z"
       style="fill:#bab9b9;stroke-width:0.33394113"
       inkscape:connector-curvature="0" />
    <path
       id="path3739"
       d="m 229.31523,-109.23387 c -0.27617,0.004 -0.55167,0.0112 -0.82616,0.0217 -2.5653,0.0995 -5.08305,0.52962 -7.50885,1.24854 14.18572,4.00074 24.58606,17.032741 24.59211,32.499223 0.004,9.343004 -3.78728,17.800545 -9.91539,23.917735 -3.42189,3.415551 -5.35594,8.04373 -5.35405,12.878864 l 0.004,10.363195 -0.008,2e-6 2.6e-4,0.943049 c 0.003,6.940966 -3.82122,12.986795 -9.47661,16.151429 2.66677,1.4893366 5.73769,2.3413566 9.00931,2.3400766 v 0 c 10.21259,-0.004 18.48809,-8.2862936 18.48409,-18.4985456 l -2.6e-4,-0.943049 0.008,-3e-6 -0.004,-10.363195 c -0.002,-4.835133 1.93249,-9.463312 5.35405,-12.878863 6.12844,-6.116857 9.91904,-14.574399 9.91539,-23.917736 -0.008,-18.815911 -15.39797,-34.032602 -34.27389,-33.762412 z"
       style="opacity:0.1;stroke-width:0.33394113;enable-background:new"
       inkscape:connector-curvature="0" />
    <path
       style="opacity:0.2;stroke-width:0.33394113"
       id="path3741"
       d="m 249.52609,-76.579654 -5.96218,-5.957854 c -0.48741,-0.487363 -1.14839,-0.760602 -1.83764,-0.760333 -0.68925,2.65e-4 -1.35002,0.27436 -1.83704,0.76177 l -4.12056,4.124114 -4.12412,-4.120891 c -0.48741,-0.487364 -1.14839,-0.760603 -1.83764,-0.760334 -0.68925,2.64e-4 -1.35002,0.274359 -1.83705,0.76177 l -4.12055,4.124114 -4.12412,-4.120891 c -0.48741,-0.487364 -1.14838,-0.760604 -1.83764,-0.760335 -0.68925,2.65e-4 -1.35001,0.27436 -1.83704,0.761769 l -5.95852,5.962513 c -1.01445,1.015243 -1.01381,2.660237 10e-4,3.674686 1.01524,1.014117 2.66057,1.013474 3.67468,-0.0013 l 4.12056,-4.124446 4.12378,4.12089 c 0.48741,0.487366 1.14839,0.760603 1.83764,0.760334 0.68926,-2.65e-4 1.35002,-0.274357 1.83705,-0.761434 l 4.12056,-4.12445 4.12378,4.120894 c 0.48741,0.487362 1.14839,0.760603 1.83764,0.760333 0.68925,-2.65e-4 1.35002,-0.27436 1.83705,-0.761437 l 4.12089,-4.124449 4.12411,4.120893 c 1.01491,1.01445 2.66024,1.01414 3.67469,-0.0011 1.01545,-1.01491 1.01548,-2.66057 2.3e-4,-3.674687 z"
       inkscape:connector-curvature="0" />
    <path
       style="opacity:0.2;stroke-width:0.33394113"
       id="path3743"
       d="m 243.93956,-62.132513 c -1.20083,-0.785294 -2.81163,-0.449053 -3.59726,0.752438 l -7.92803,12.121491 -0.006,-16.70006 c -5.3e-4,-1.43528 -1.16447,-2.597942 -2.59941,-2.597381 -1.43495,5.3e-4 -2.59794,1.164133 -2.59738,2.59941 l 0.006,16.694049 -7.93383,-12.108944 c -0.78657,-1.200878 -2.39697,-1.535525 -3.59785,-0.749626 -1.20021,0.786567 -1.53586,2.397628 -0.74929,3.597839 l 12.70937,19.398017 c 0.0411,0.06343 0.0885,0.120851 0.13465,0.179274 0.0134,0.01701 0.0251,0.03539 0.0388,0.05208 0.0378,0.04574 0.0788,0.08813 0.11926,0.130526 0.0257,0.02704 0.0511,0.05441 0.0778,0.08045 0.0431,0.04139 0.0872,0.08111 0.13296,0.119163 0.0271,0.0227 0.0548,0.04473 0.0828,0.06642 0.0484,0.03738 0.0975,0.0741 0.14831,0.108138 0.007,0.0043 0.013,0.01003 0.02,0.01469 0.0117,0.0077 0.0244,0.01236 0.0361,0.02003 0.0845,0.0534 0.17169,0.101451 0.2612,0.144494 0.0294,0.01434 0.0588,0.02769 0.0888,0.04037 0.0782,0.03403 0.15764,0.06339 0.2388,0.08974 0.0354,0.01135 0.0701,0.02368 0.10521,0.03369 0.0812,0.02236 0.16364,0.03901 0.2468,0.05367 0.0327,0.0057 0.0648,0.01365 0.0975,0.01833 0.11388,0.01532 0.22943,0.02463 0.3453,0.02458 0,0 2.7e-4,0 8e-4,0 0,0 2.6e-4,0 7.9e-4,0 0.11721,-4.5e-5 0.23376,-0.0098 0.34963,-0.02551 0.0284,-0.0037 0.0564,-0.01072 0.0848,-0.01572 0.0905,-0.0154 0.17964,-0.03447 0.26813,-0.05921 0.0127,-0.0033 0.0257,-0.005 0.0381,-0.0084 0.016,-0.005 0.03,-0.0127 0.0461,-0.01804 0.10751,-0.0341 0.21202,-0.07488 0.31419,-0.122346 0.017,-0.008 0.0347,-0.01503 0.0517,-0.02339 0.23639,-0.116973 0.45539,-0.270338 0.65101,-0.459092 0.008,-0.0077 0.015,-0.01569 0.0224,-0.02339 0.0838,-0.08319 0.16256,-0.173379 0.23599,-0.269248 0.0117,-0.01537 0.0234,-0.03006 0.0344,-0.04577 0.0264,-0.03608 0.0551,-0.06848 0.0798,-0.106559 l 12.69387,-19.407904 c 0.78562,-1.201827 0.44871,-2.812626 -0.75211,-3.598254 z"
       inkscape:connector-curvature="0" />
  </g>
</svg>
