<?xml version="1.0" encoding="UTF-8" standalone="no"?>
<!-- Created with Inkscape (http://www.inkscape.org/) -->

<svg
   xmlns:dc="http://purl.org/dc/elements/1.1/"
   xmlns:cc="http://creativecommons.org/ns#"
   xmlns:rdf="http://www.w3.org/1999/02/22-rdf-syntax-ns#"
   xmlns:svg="http://www.w3.org/2000/svg"
   xmlns="http://www.w3.org/2000/svg"
   xmlns:sodipodi="http://sodipodi.sourceforge.net/DTD/sodipodi-0.dtd"
   xmlns:inkscape="http://www.inkscape.org/namespaces/inkscape"
   width="119.57603mm"
   height="126.7201mm"
   viewBox="0 0 119.57603 126.7201"
   version="1.1"
   id="svg1051"
   inkscape:version="0.92.3 (2405546, 2018-03-11)"
   sodipodi:docname="nut.svg">
  <defs
     id="defs1045" />
  <sodipodi:namedview
     id="base"
     pagecolor="#ffffff"
     bordercolor="#666666"
     borderopacity="1.0"
     inkscape:pageopacity="0.0"
     inkscape:pageshadow="2"
     inkscape:zoom="0.35"
     inkscape:cx="-338.31527"
     inkscape:cy="-134.81466"
     inkscape:document-units="mm"
     inkscape:current-layer="layer1"
     showgrid="false"
     fit-margin-top="0"
     fit-margin-left="0"
     fit-margin-right="0"
     fit-margin-bottom="0"
     inkscape:window-width="1280"
     inkscape:window-height="958"
     inkscape:window-x="-8"
     inkscape:window-y="-8"
     inkscape:window-maximized="1" />
  <metadata
     id="metadata1048">
    <rdf:RDF>
      <cc:Work
         rdf:about="">
        <dc:format>image/svg+xml</dc:format>
        <dc:type
           rdf:resource="http://purl.org/dc/dcmitype/StillImage" />
        <dc:title></dc:title>
      </cc:Work>
    </rdf:RDF>
  </metadata>
  <g
     inkscape:label="Layer 1"
     inkscape:groupmode="layer"
     id="layer1"
     transform="translate(-64.94413,13.556479)">
    <path
       id="path2801"
       d="m 184.28338,69.365411 c -0.47328,-1.764919 -1.60581,-3.2405 -3.18831,-4.15463 l -4.88533,-2.820429 c -2.20475,-1.272889 -3.41735,-3.710239 -3.08899,-6.210919 0.27465,-2.099361 0.41399,-4.244322 0.41399,-6.377131 0,-2.12064 -0.14036,-4.26357 -0.41703,-6.37205 -0.32988,-2.500691 0.88221,-4.940059 3.08798,-6.213459 l 4.88888,-2.822451 c 3.26786,-1.886029 4.39228,-6.07968 2.50575,-9.349571 l -7.99409,-13.84574 c -0.91413,-1.5830096 -2.38971,-2.7155296 -4.15159,-3.1877996 -0.5807,-0.15607 -1.17965,-0.23512 -1.7786,-0.23512 -1.19385,0 -2.37451,0.3167 -3.41836,0.91768 l -4.89243,2.8244796 c -0.96581,0.5579 -2.05578,0.85281 -3.15385,0.85281 -1.37373,0 -2.67905,-0.44541 -3.7756,-1.28809 -3.39455,-2.6086196 -7.11087,-4.7576296 -11.04355,-6.3877696 -2.32181,-0.96227 -3.82222,-3.23036 -3.82222,-5.77767 v -5.6302098 c 0,-3.7740806 -3.07025,-6.8438206 -6.84382,-6.8438206 h -15.98766 c -3.77408,0 -6.84382,3.07075 -6.84382,6.8438206 v 5.6312298 c 0,2.54781 -1.50041,4.8159 -3.82324,5.77767 -3.93775,1.63114 -7.65458,3.77965 -11.0476,6.3872596 -1.095031,0.84167 -2.40035,1.28657 -3.77408,1.28657 -1.09757,0 -2.18855,-0.29491 -3.15487,-0.85332 L 83.20708,8.6948014 c -1.04081,-0.60047 -2.2225,-0.91869 -3.41836,-0.91869 -0.59946,0 -1.19841,0.0796 -1.77506,0.23461 -1.76593,0.47328 -3.24152,1.60581 -4.156151,3.1888196 l -7.99358,13.846749 c -0.91464,1.584021 -1.15685,3.429 -0.68306,5.193922 0.47328,1.764919 1.60581,3.2405 3.188311,4.15463 l 4.885319,2.820429 c 2.204761,1.27289 3.417351,3.710239 3.089001,6.21092 -0.27465,2.09936 -0.414,4.244332 -0.414,6.37713 0,2.120641 0.14037,4.26358 0.41704,6.372061 0.32987,2.50068 -0.88221,4.940049 -3.087981,6.213451 l -4.88888,2.822459 c -3.26786,1.886021 -4.39228,6.07967 -2.50575,9.34957 l 7.99408,13.845729 c 0.914131,1.58301 2.389721,2.71554 4.155651,3.18882 0.57969,0.15556 1.17661,0.2341 1.77455,0.2341 h 5.03e-4 c 1.19536,0 2.37704,-0.3167 3.41786,-0.91767 l 4.891907,-2.82398 c 0.96582,-0.5579 2.05629,-0.85282 3.15386,-0.85282 1.373719,0 2.679549,0.44542 3.775091,1.28759 3.39303,2.60811 7.108839,4.75713 11.044059,6.38777 2.32181,0.96227 3.82222,3.23037 3.82222,5.777669 v 5.63173 c 0,3.77409 3.06974,6.84382 6.84382,6.84382 h 15.98766 c 3.77408,0 6.84382,-3.07075 6.84382,-6.84382 v -5.63274 c 0,-2.547819 1.50041,-4.815909 3.82222,-5.777679 3.93877,-1.63114 7.6561,-3.77965 11.04811,-6.38574 1.09503,-0.84116 2.40035,-1.28606 3.77408,-1.28606 1.09807,0 2.18905,0.29491 3.15487,0.85282 l 4.89039,2.82346 c 1.0398,0.59946 2.22098,0.91616 3.41533,0.91616 0.59793,0 1.19485,-0.0785 1.77455,-0.23411 1.76593,-0.47327 3.24151,-1.60581 4.15615,-3.18881 l 7.99358,-13.846749 c 0.91717,-1.58554 1.15888,-3.430019 0.68509,-5.194941 z m -59.55126,8.858052 c -15.67146,0 -28.42064,-12.749181 -28.42064,-28.42065 0,-15.671461 12.74918,-28.420653 28.42064,-28.420653 15.67147,0 28.42065,12.749192 28.42065,28.420653 0,15.671469 -12.74918,28.42065 -28.42065,28.42065 z"
       style="fill:#6a4c93;fill-opacity:1;stroke-width:0.50672436"
       inkscape:connector-curvature="0" />
  </g>
</svg>
