<?xml version="1.0" encoding="UTF-8" standalone="no"?>
<!-- Created with Inkscape (http://www.inkscape.org/) -->

<svg
   xmlns:dc="http://purl.org/dc/elements/1.1/"
   xmlns:cc="http://creativecommons.org/ns#"
   xmlns:rdf="http://www.w3.org/1999/02/22-rdf-syntax-ns#"
   xmlns:svg="http://www.w3.org/2000/svg"
   xmlns="http://www.w3.org/2000/svg"
   xmlns:sodipodi="http://sodipodi.sourceforge.net/DTD/sodipodi-0.dtd"
   xmlns:inkscape="http://www.inkscape.org/namespaces/inkscape"
   width="82.871803mm"
   height="84.476448mm"
   viewBox="0 0 82.871803 84.476448"
   version="1.1"
   id="svg290"
   inkscape:version="0.92.3 (2405546, 2018-03-11)"
   sodipodi:docname="planet.svg">
  <defs
     id="defs284" />
  <sodipodi:namedview
     id="base"
     pagecolor="#ffffff"
     bordercolor="#666666"
     borderopacity="1.0"
     inkscape:pageopacity="0.0"
     inkscape:pageshadow="2"
     inkscape:zoom="0.35"
     inkscape:cx="198.0367"
     inkscape:cy="-357.50233"
     inkscape:document-units="mm"
     inkscape:current-layer="layer1"
     showgrid="false"
     fit-margin-top="0"
     fit-margin-left="0"
     fit-margin-right="0"
     fit-margin-bottom="0"
     inkscape:window-width="1280"
     inkscape:window-height="958"
     inkscape:window-x="-8"
     inkscape:window-y="-8"
     inkscape:window-maximized="1" />
  <metadata
     id="metadata287">
    <rdf:RDF>
      <cc:Work
         rdf:about="">
        <dc:format>image/svg+xml</dc:format>
        <dc:type
           rdf:resource="http://purl.org/dc/dcmitype/StillImage" />
        <dc:title></dc:title>
      </cc:Work>
    </rdf:RDF>
  </metadata>
  <g
     inkscape:label="Layer 1"
     inkscape:groupmode="layer"
     id="layer1"
     transform="translate(44.45971,30.23227)">
    <path
       inkscape:connector-curvature="0"
       style="fill:#091a25;fill-opacity:1;stroke-width:0.395529"
       d="m 31.901092,14.582495 -70.3454,0.377534 c -0.992763,0.0053 -1.801575,-0.794848 -1.806903,-1.787612 -0.0053,-0.992762 0.794849,-1.801575 1.787612,-1.806903 l 70.3454,-0.377534 c 0.992765,-0.0053 1.801575,0.794848 1.806903,1.787612 0.0053,0.992367 -0.794848,1.801574 -1.787612,1.806903 z"
       id="path4052" />
    <path
       inkscape:connector-curvature="0"
       style="fill:#091a25;fill-opacity:1;stroke-width:0.395529"
       d="m -2.718383,-2.4983782 c -16.694643,0.0896 -27.875154,-7.193895 -28.041481,-7.305334 l 1.996434,-2.9898818 c 0.23104,0.156183 23.57904,15.2613368 52.884886,-0.383501 l 1.69369,3.171405 C 15.384718,-4.4379362 5.641001,-2.5432432 -2.718383,-2.4983782 Z"
       id="path4054" />
    <path
       inkscape:connector-curvature="0"
       style="fill:#091a25;fill-opacity:1;stroke-width:0.395529"
       d="M 24.222349,38.344711 C -2.666609,20.19317 -27.399228,37.838203 -28.438569,38.598462 l -2.126127,-2.898142 c 0.27421,-0.201613 27.764784,-19.930094 56.798567,-0.334891 z"
       id="path4056" />
    <path
       inkscape:connector-curvature="0"
       style="fill:#091a25;fill-opacity:1;stroke-width:0.395529"
       d="m -10.07658,48.046937 c -27.113022,-43.1706792 -0.419712,-71.718471 -0.146336,-72.001954 l 2.588712,2.494192 -1.294553,-1.246897 1.29731,1.244905 c -1.032097,1.078229 -24.97218,26.8820558 0.60011,67.598007 z"
       id="path4058" />
    <rect
       transform="rotate(-0.30749617)"
       x="-4.4879823"
       y="-23.736225"
       style="fill:#091a25;fill-opacity:1;stroke-width:0.395529"
       width="3.5945678"
       height="71.76162"
       id="rect4060" />
    <path
       inkscape:connector-curvature="0"
       style="fill:#091a25;fill-opacity:1;stroke-width:0.395529"
       d="M 4.229496,47.970158 1.163904,46.090812 C 26.297701,5.1027278 2.082032,-20.442654 1.038423,-21.509743 l 2.564571,-2.519476 c 0.2768,0.280531 27.274986,28.5401668 0.626502,71.999377 z"
       id="path4062" />
    <path
       inkscape:connector-curvature="0"
       style="fill:#091a25;fill-opacity:1;stroke-width:0.395529"
       d="M -2.520565,49.837711 C -23.094895,49.94813 -39.92534,33.135676 -40.036843,12.35963 c -0.111502,-20.7760482 16.537518,-37.768181 37.11185,-37.8786 20.57433,-0.11042 37.404775,16.7020318 37.516276,37.478079 0.111503,20.776049 -16.53712,37.768178 -37.111848,37.878602 z m -0.385138,-71.762166 c -18.593154,0.09979 -33.637094,15.4707108 -33.536228,34.264792 0.100865,18.794079 15.308921,34.002644 33.902076,33.902859 C 16.053299,46.143408 31.097238,30.772484 30.996373,11.978402 30.895506,-6.8156772 15.687452,-22.024242 -2.905703,-21.924455 Z"
       id="path4064" />
    <circle
       transform="rotate(-0.30749617)"
       style="fill:#ff595e;fill-opacity:1;stroke-width:0.395529"
       cx="-3.3500469"
       cy="12.948691"
       r="6.2374921"
       id="circle4068" />
    <circle
       transform="rotate(-0.30749617)"
       style="fill:#6a4c93;fill-opacity:1;stroke-width:0.395529"
       cx="32.105568"
       cy="12.948691"
       r="6.2374921"
       id="circle4070" />
    <circle
       transform="rotate(-0.30749617)"
       style="fill:#8ac926;fill-opacity:1;stroke-width:0.395529"
       cx="-38.287121"
       cy="11.990722"
       r="6.2374921"
       id="circle4072" />
    <circle
       transform="rotate(-0.30749617)"
       style="fill:#2d8dc9;fill-opacity:1;stroke-width:0.395529"
       cx="-2.6855533"
       cy="-24.009537"
       r="6.2374921"
       id="circle4074" />
    <circle
       transform="rotate(-0.30749617)"
       style="fill:#ffca3a;fill-opacity:1;stroke-width:0.395529"
       cx="-2.6855533"
       cy="47.992962"
       r="6.2374921"
       id="circle4076" />
  </g>
</svg>
