<?xml version="1.0" encoding="UTF-8" standalone="no"?>
<!-- Created with Inkscape (http://www.inkscape.org/) -->

<svg
   xmlns:dc="http://purl.org/dc/elements/1.1/"
   xmlns:cc="http://creativecommons.org/ns#"
   xmlns:rdf="http://www.w3.org/1999/02/22-rdf-syntax-ns#"
   xmlns:svg="http://www.w3.org/2000/svg"
   xmlns="http://www.w3.org/2000/svg"
   xmlns:sodipodi="http://sodipodi.sourceforge.net/DTD/sodipodi-0.dtd"
   xmlns:inkscape="http://www.inkscape.org/namespaces/inkscape"
   width="160.61534mm"
   height="13.89938mm"
   viewBox="0 0 160.61534 13.89938"
   version="1.1"
   id="svg1623"
   inkscape:version="0.92.3 (unknown)"
   sodipodi:docname="rule.svg">
  <defs
     id="defs1617" />
  <sodipodi:namedview
     id="base"
     pagecolor="#ffffff"
     bordercolor="#666666"
     borderopacity="1.0"
     inkscape:pageopacity="0"
     inkscape:pageshadow="2"
     inkscape:zoom="0.35"
     inkscape:cx="-209.33207"
     inkscape:cy="-570.87631"
     inkscape:document-units="mm"
     inkscape:current-layer="layer1"
     showgrid="false"
     fit-margin-top="0"
     fit-margin-left="0"
     fit-margin-right="0"
     fit-margin-bottom="0"
     inkscape:window-width="1920"
     inkscape:window-height="960"
     inkscape:window-x="0"
     inkscape:window-y="27"
     inkscape:window-maximized="1" />
  <metadata
     id="metadata1620">
    <rdf:RDF>
      <cc:Work
         rdf:about="">
        <dc:format>image/svg+xml</dc:format>
        <dc:type
           rdf:resource="http://purl.org/dc/dcmitype/StillImage" />
        <dc:title></dc:title>
      </cc:Work>
    </rdf:RDF>
  </metadata>
  <g
     inkscape:label="Layer 1"
     inkscape:groupmode="layer"
     id="layer1"
     transform="translate(-27.793515,16.110404)">
    <path
       id="path3236"
       d="M 177.91622,-7.297978 38.319185,-6.3179325 c -1.299351,0.00912 -2.360155,-1.0368913 -2.369277,-2.3362418 -0.0091,-1.2993502 1.036891,-2.3601547 2.336241,-2.3692767 l 139.597041,-0.980045 c 1.29935,-0.0091 2.36015,1.036891 2.36927,2.3362411 0.009,1.2993505 -1.03689,2.3601545 -2.33624,2.3692769 z"
       style="fill:#dcdddd;stroke-width:0.31370893"
       inkscape:connector-curvature="0" />
    <path
       id="path3256"
       d="m 34.269699,-2.2111858 c -3.546078,0.024895 -6.451128,-2.839649 -6.476023,-6.3857273 -0.0249,-3.5460789 2.839648,-6.4511279 6.385727,-6.4760229 3.546078,-0.0249 6.451128,2.839648 6.476023,6.3857266 0.0249,3.5460786 -2.839648,6.4511276 -6.385727,6.4760236 z m -0.05726,-8.1562322 c -0.951456,0.0067 -1.719924,0.7860138 -1.713244,1.7374698 0.0067,0.9514557 0.786014,1.7199234 1.73747,1.7132437 0.951456,-0.00668 1.719923,-0.7860138 1.713244,-1.7374698 -0.0067,-0.9514557 -0.786014,-1.7199237 -1.73747,-1.7132437 z"
       style="fill:#dcdddd;stroke-width:0.31370893"
       inkscape:connector-curvature="0" />
    <path
       id="path3258"
       d="m 182.02297,-3.2484928 c -3.54608,0.0249 -6.45113,-2.839648 -6.47602,-6.3857267 -0.0249,-3.5460785 2.83964,-6.4511275 6.38572,-6.4760235 3.54608,-0.0249 6.45113,2.839648 6.47603,6.385727 0.0249,3.5460787 -2.83965,6.4511282 -6.38573,6.4760232 z m -0.0573,-8.1562312 c -0.95146,0.0067 -1.71993,0.786013 -1.71325,1.7374691 0.007,0.9514557 0.78602,1.7199235 1.73747,1.7132438 0.95146,-0.00668 1.71993,-0.7860138 1.71325,-1.7374695 -0.007,-0.9514564 -0.78602,-1.7199234 -1.73747,-1.7132434 z"
       style="fill:#dcdddd;stroke-width:0.31370893"
       inkscape:connector-curvature="0" />
  </g>
</svg>
