<?xml version="1.0" encoding="UTF-8" standalone="no"?>
<!-- Created with Inkscape (http://www.inkscape.org/) -->

<svg
   xmlns:dc="http://purl.org/dc/elements/1.1/"
   xmlns:cc="http://creativecommons.org/ns#"
   xmlns:rdf="http://www.w3.org/1999/02/22-rdf-syntax-ns#"
   xmlns:svg="http://www.w3.org/2000/svg"
   xmlns="http://www.w3.org/2000/svg"
   xmlns:sodipodi="http://sodipodi.sourceforge.net/DTD/sodipodi-0.dtd"
   xmlns:inkscape="http://www.inkscape.org/namespaces/inkscape"
   width="13.976866mm"
   height="36.115093mm"
   viewBox="0 0 13.976866 36.115093"
   version="1.1"
   id="svg2234"
   inkscape:version="0.92.3 (unknown)"
   sodipodi:docname="small-sizer.svg">
  <defs
     id="defs2228" />
  <sodipodi:namedview
     id="base"
     pagecolor="#ffffff"
     bordercolor="#666666"
     borderopacity="1.0"
     inkscape:pageopacity="0"
     inkscape:pageshadow="2"
     inkscape:zoom="1.979899"
     inkscape:cx="95.176371"
     inkscape:cy="74.033821"
     inkscape:document-units="mm"
     inkscape:current-layer="layer1"
     showgrid="false"
     fit-margin-top="0"
     fit-margin-left="0"
     fit-margin-right="0"
     fit-margin-bottom="0"
     inkscape:window-width="1920"
     inkscape:window-height="960"
     inkscape:window-x="0"
     inkscape:window-y="27"
     inkscape:window-maximized="1" />
  <metadata
     id="metadata2231">
    <rdf:RDF>
      <cc:Work
         rdf:about="">
        <dc:format>image/svg+xml</dc:format>
        <dc:type
           rdf:resource="http://purl.org/dc/dcmitype/StillImage" />
        <dc:title></dc:title>
      </cc:Work>
    </rdf:RDF>
  </metadata>
  <g
     inkscape:label="Layer 1"
     inkscape:groupmode="layer"
     id="layer1"
     transform="translate(147.59557,3.0277847)">
    <path
       id="path3270"
       d="m -133.81465,-1.7381463 0.19577,27.8849033 c 0.0267,3.80833 -3.0353,6.913663 -6.8405,6.940378 -3.80833,0.02674 -6.91366,-3.035298 -6.9404,-6.843631 l -0.19576,-27.8849011 c -0.005,-0.7183758 0.57123,-1.3027974 1.2896,-1.3078408 l 11.18345,-0.078514 c 0.71838,-0.00504 1.3028,0.5712295 1.30784,1.2896056 z"
       style="fill:#ffca3a;fill-opacity:1;stroke-width:0.31370893"
       inkscape:connector-curvature="0" />
    <path
       id="path3272"
       d="m -141.26064,26.200403 -0.19577,-27.8849001 c -0.005,-0.7183758 0.57123,-1.3027974 1.2896,-1.3078408 l -6.13913,0.0431 c -0.71837,0.00504 -1.29465,0.589465 -1.2896,1.3078408 l 0.19576,27.8849011 c 0.0267,3.808333 3.13207,6.870367 6.9404,6.843631 1.10298,-0.0078 2.14264,-0.275426 3.06357,-0.742741 -2.27348,-1.112793 -3.84585,-3.439571 -3.86483,-6.143991 z"
       style="fill:#8ac926;fill-opacity:1;stroke-width:0.31370893"
       inkscape:connector-curvature="0" />
    <circle
       transform="rotate(-0.40224023)"
       id="circle3276"
       r="2.0042865"
       cy="25.614313"
       cx="-140.62546"
       style="fill:#6a4c93;fill-opacity:1;stroke-width:0.31370893" />
  </g>
</svg>
