<?xml version="1.0" encoding="UTF-8" standalone="no"?>
<!-- Created with Inkscape (http://www.inkscape.org/) -->

<svg
   xmlns:dc="http://purl.org/dc/elements/1.1/"
   xmlns:cc="http://creativecommons.org/ns#"
   xmlns:rdf="http://www.w3.org/1999/02/22-rdf-syntax-ns#"
   xmlns:svg="http://www.w3.org/2000/svg"
   xmlns="http://www.w3.org/2000/svg"
   xmlns:sodipodi="http://sodipodi.sourceforge.net/DTD/sodipodi-0.dtd"
   xmlns:inkscape="http://www.inkscape.org/namespaces/inkscape"
   width="2038.9453"
   height="1423.2272"
   viewBox="0 0 539.47095 376.56218"
   version="1.1"
   id="svg8"
   inkscape:version="0.92.3 (unknown)"
   sodipodi:docname="web-development.svg">
  <defs
     id="defs2" />
  <sodipodi:namedview
     id="base"
     pagecolor="#ffffff"
     bordercolor="#666666"
     borderopacity="1.0"
     inkscape:pageopacity="0"
     inkscape:pageshadow="2"
     inkscape:zoom="0.69999999"
     inkscape:cx="2037.8414"
     inkscape:cy="993.00055"
     inkscape:document-units="mm"
     inkscape:current-layer="layer1"
     showgrid="false"
     showguides="false"
     inkscape:window-width="1920"
     inkscape:window-height="960"
     inkscape:window-x="0"
     inkscape:window-y="27"
     inkscape:window-maximized="1"
     fit-margin-top="0"
     fit-margin-left="0"
     fit-margin-right="0"
     fit-margin-bottom="0"
     units="px" />
  <metadata
     id="metadata5">
    <rdf:RDF>
      <cc:Work
         rdf:about="">
        <dc:format>image/svg+xml</dc:format>
        <dc:type
           rdf:resource="http://purl.org/dc/dcmitype/StillImage" />
        <dc:title />
      </cc:Work>
    </rdf:RDF>
  </metadata>
  <g
     inkscape:label="Layer 1"
     inkscape:groupmode="layer"
     id="layer1"
     transform="translate(157.48041,-274.47045)">
    <g
       id="g2867"
       transform="matrix(0.42737869,0,0,0.42737869,-5.2578796,369.43207)">
      <path
         id="path2779"
         d="m 179.814,512 c -7.289,0 -13.22,-5.931 -13.22,-13.22 V 390.835 c 0,-6.677 -5.433,-12.109 -12.109,-12.109 h -41.308 c -7.29,-10e-4 -13.221,-5.932 -13.221,-13.221 v -63.52 c 0,-6.678 -5.433,-12.11 -12.109,-12.11 -9.417,0 -17.981,-4.79 -22.911,-12.814 -4.929,-8.024 -5.331,-17.83 -1.074,-26.23 l 22.686,-44.767 c 0.855,-1.688 1.307,-3.582 1.307,-5.473 l 10e-4,-52.574 C 88.359,112.722 106.231,76.037 136.889,47.371 169.558,16.823 211.859,0 256,0 c 91.533,0 166.514,74.454 167.145,165.971 0.007,0.784 -0.063,1.6 -0.205,2.416 l -32.925,186.565 c -0.123,0.699 -0.185,1.408 -0.185,2.114 V 498.78 c 0,7.289 -5.931,13.22 -13.22,13.22 z"
         style="fill:#ff8689;fill-opacity:1"
         inkscape:connector-curvature="0" />
      <path
         id="path2781"
         d="m 225.005,466.811 c -7.289,0 -13.22,-5.931 -13.22,-13.22 V 345.646 c 0,-6.677 -5.433,-12.109 -12.109,-12.109 h -41.308 c -7.289,0 -13.22,-5.931 -13.22,-13.22 v -63.52 c 0,-6.677 -5.433,-12.109 -12.109,-12.109 -9.417,0 -17.981,-4.79 -22.911,-12.814 -4.929,-8.024 -5.331,-17.83 -1.074,-26.23 l 22.686,-44.767 c 0.855,-1.688 1.307,-3.582 1.307,-5.473 l 0.001,-52.574 c 0.348,-24.364 8.974,-49.387 24.366,-71.981 -7.177,4.955 -14.042,10.464 -20.522,16.524 -30.658,28.668 -48.53,65.352 -49.033,100.646 l -10e-4,52.574 c 0,1.893 -0.452,3.785 -1.307,5.473 l -22.686,44.767 c -4.257,8.4 -3.856,18.205 1.074,26.23 4.927,8.022 13.492,12.812 22.909,12.812 6.676,0 12.109,5.432 12.109,12.109 v 63.52 c 0,7.29 5.931,13.221 13.22,13.221 h 41.308 c 6.677,0 12.109,5.432 12.109,12.109 v 107.945 c 0,7.289 5.931,13.22 13.22,13.22 H 376.61 c 7.289,0 13.22,-5.931 13.22,-13.22 V 466.81 H 225.005 Z"
         style="fill:#ff595e;fill-opacity:1"
         inkscape:connector-curvature="0" />
      <g
         id="g2789">
        <path
           id="path2783"
           d="M 477.015,58.863 H 322.638 c -4.601,0 -8.33,3.729 -8.33,8.33 v 51.089 c 0,4.6 3.728,8.33 8.33,8.33 4.602,0 8.33,-3.729 8.33,-8.33 V 75.523 h 146.048 c 4.601,0 8.33,-3.729 8.33,-8.33 -10e-4,-4.6 -3.729,-8.33 -8.331,-8.33 z"
           style="fill:#091a25;fill-opacity:1"
           inkscape:connector-curvature="0" />
        <path
           id="path2785"
           d="m 39.427,64.416 h 152.711 v 52.755 c 0,4.6 3.728,8.33 8.33,8.33 4.601,0 8.33,-3.729 8.33,-8.33 V 56.087 c 0,-4.6 -3.728,-8.33 -8.33,-8.33 H 39.427 c -4.601,0 -8.33,3.729 -8.33,8.33 0,4.601 3.729,8.329 8.33,8.329 z"
           style="fill:#091a25;fill-opacity:1"
           inkscape:connector-curvature="0" />
        <path
           id="path2787"
           d="M 467.02,380.946 H 264.33 V 344.85 302.646 c 0,-4.6 -3.728,-8.33 -8.33,-8.33 -4.601,0 -8.33,3.729 -8.33,8.33 V 336.52 H 67.193 c -4.601,0 -8.33,3.729 -8.33,8.33 v 80.521 h -27.21 c -4.601,0 -8.33,3.729 -8.33,8.33 0,4.601 3.728,8.33 8.33,8.33 h 35.54 c 4.601,0 8.33,-3.729 8.33,-8.33 V 353.18 H 247.67 v 36.095 c 0,4.6 3.728,8.33 8.33,8.33 h 211.02 c 4.601,0 8.33,-3.73 8.33,-8.33 0,-4.6 -3.729,-8.329 -8.33,-8.329 z"
           style="fill:#091a25;fill-opacity:1"
           inkscape:connector-curvature="0" />
      </g>
      <g
         id="g2799" />
      <g
         id="g2803" />
      <g
         id="g2805" />
      <g
         id="g2807" />
      <g
         id="g2809" />
      <g
         id="g2811" />
      <g
         id="g2813" />
      <g
         id="g2815" />
      <g
         id="g2817" />
      <g
         id="g2819" />
      <g
         id="g2821" />
      <g
         id="g2823" />
      <g
         id="g2825" />
      <g
         id="g2827" />
      <g
         id="g2829" />
      <g
         id="g2831" />
    </g>
    <g
       id="g3103"
       transform="matrix(0.34623399,-0.00159753,0.00159753,0.34623399,-174.87014,474.1452)">
      <g
         id="g2976">
        <path
           id="path2964"
           d="m 354.335,127.663 c -4.142,0 -7.5,-3.358 -7.5,-7.5 V 67.048 c 0,-8.965 7.294,-16.259 16.259,-16.259 h 44.885 c 4.142,0 7.5,3.358 7.5,7.5 0,4.142 -3.358,7.5 -7.5,7.5 h -44.885 c -0.694,0 -1.259,0.565 -1.259,1.259 v 53.115 c 0,4.142 -3.358,7.5 -7.5,7.5 z"
           style="fill:#091a25;fill-opacity:1"
           inkscape:connector-curvature="0" />
        <path
           id="path2966"
           d="m 157.665,127.663 c -4.142,0 -7.5,-3.358 -7.5,-7.5 V 67.048 c 0,-0.694 -0.565,-1.259 -1.259,-1.259 h -44.885 c -4.142,0 -7.5,-3.358 -7.5,-7.5 0,-4.142 3.358,-7.5 7.5,-7.5 h 44.885 c 8.965,0 16.259,7.294 16.259,16.259 v 53.115 c 0,4.142 -3.358,7.5 -7.5,7.5 z"
           style="fill:#091a25;fill-opacity:1"
           inkscape:connector-curvature="0" />
        <path
           id="path2968"
           d="m 256,127.665 c -4.142,0 -7.5,-3.358 -7.5,-7.5 V 55.433 c 0,-4.142 3.358,-7.5 7.5,-7.5 4.142,0 7.5,3.358 7.5,7.5 v 64.732 c 0,4.142 -3.358,7.5 -7.5,7.5 z"
           style="fill:#091a25;fill-opacity:1"
           inkscape:connector-curvature="0" />
        <path
           id="path2970"
           d="m 148.906,461.211 h -44.885 c -4.142,0 -7.5,-3.358 -7.5,-7.5 0,-4.142 3.358,-7.5 7.5,-7.5 h 44.885 c 0.694,0 1.259,-0.565 1.259,-1.259 v -53.115 c 0,-4.142 3.358,-7.5 7.5,-7.5 4.142,0 7.5,3.358 7.5,7.5 v 53.115 c 0,8.965 -7.294,16.259 -16.259,16.259 z"
           style="fill:#091a25;fill-opacity:1"
           inkscape:connector-curvature="0" />
        <path
           id="path2972"
           d="m 407.979,461.211 h -44.885 c -8.965,0 -16.259,-7.294 -16.259,-16.259 v -53.115 c 0,-4.142 3.358,-7.5 7.5,-7.5 4.142,0 7.5,3.358 7.5,7.5 v 53.115 c 0,0.694 0.565,1.259 1.259,1.259 h 44.885 c 4.142,0 7.5,3.358 7.5,7.5 0,4.142 -3.357,7.5 -7.5,7.5 z"
           style="fill:#091a25;fill-opacity:1"
           inkscape:connector-curvature="0" />
        <path
           id="path2974"
           d="m 256,464.067 c -4.142,0 -7.5,-3.358 -7.5,-7.5 v -64.732 c 0,-4.142 3.358,-7.5 7.5,-7.5 4.142,0 7.5,3.358 7.5,7.5 v 64.732 c 0,4.142 -3.358,7.5 -7.5,7.5 z"
           style="fill:#091a25;fill-opacity:1"
           inkscape:connector-curvature="0" />
      </g>
      <path
         id="path2978"
         d="m 417.045,130.481 v 258.021 c 0,3.248 -2.629,5.878 -5.878,5.878 H 100.833 c -3.248,0 -5.878,-2.629 -5.878,-5.878 V 130.481 c 0,-7.104 5.756,-12.86 12.849,-12.86 h 296.38 c 7.094,0 12.861,5.756 12.861,12.86 z"
         style="fill:#b4dc74;fill-opacity:1"
         inkscape:connector-curvature="0" />
      <path
         id="path2980"
         d="m 417.045,130.481 v 51.153 H 94.955 v -51.153 c 0,-7.104 5.756,-12.86 12.849,-12.86 h 296.38 c 7.094,0 12.861,5.756 12.861,12.86 z"
         style="fill:#091a25;fill-opacity:1"
         inkscape:connector-curvature="0" />
      <path
         id="path2982"
         d="M 417.04,166.169 H 94.955 v -35.69 c 0,-7.1 5.756,-12.857 12.857,-12.857 h 296.372 c 7.1,0 12.857,5.756 12.857,12.857 v 35.69 z"
         style="fill:#2d8dc9;fill-opacity:1"
         inkscape:connector-curvature="0" />
      <path
         id="path2984"
         d="M 293.726,150.52 H 138.154 c -4.267,0 -7.726,-3.459 -7.726,-7.726 0,-4.267 3.459,-7.726 7.726,-7.726 h 155.572 c 4.267,0 7.726,3.459 7.726,7.726 0,4.267 -3.459,7.726 -7.726,7.726 z"
         style="fill:#c5dff0;fill-opacity:1"
         inkscape:connector-curvature="0" />
      <path
         id="path2986"
         d="m 326.415,150.044 c -4.267,0 -7.726,-3.459 -7.726,-7.726 v -0.844 c 0,-4.267 3.459,-7.726 7.726,-7.726 4.267,0 7.726,3.459 7.726,7.726 v 0.844 c 0,4.267 -3.459,7.726 -7.726,7.726 z"
         style="fill:#8ac926;fill-opacity:1"
         inkscape:connector-curvature="0" />
      <path
         id="path2988"
         d="m 350.128,150.044 c -4.267,0 -7.726,-3.459 -7.726,-7.726 v -0.844 c 0,-4.267 3.459,-7.726 7.726,-7.726 4.267,0 7.726,3.459 7.726,7.726 v 0.844 c 0,4.267 -3.459,7.726 -7.726,7.726 z"
         style="fill:#ff595e;fill-opacity:1"
         inkscape:connector-curvature="0" />
      <path
         id="path2990"
         d="m 373.841,150.044 c -4.267,0 -7.726,-3.459 -7.726,-7.726 v -0.844 c 0,-4.267 3.459,-7.726 7.726,-7.726 4.267,0 7.726,3.459 7.726,7.726 v 0.844 c 0,4.267 -3.459,7.726 -7.726,7.726 z"
         style="fill:#ffca3a;fill-opacity:1"
         inkscape:connector-curvature="0" />
      <g
         id="g2996">
        <path
           id="path2992"
           d="M 452.631,77.011 H 421.88 c -5.144,0 -9.314,-4.17 -9.314,-9.314 V 36.946 c 0,-5.144 4.17,-9.314 9.314,-9.314 h 30.751 c 5.144,0 9.314,4.17 9.314,9.314 v 30.751 c 0.001,5.144 -4.17,9.314 -9.314,9.314 z"
           style="fill:#ff595e;fill-opacity:1"
           inkscape:connector-curvature="0" />
        <path
           id="path2994"
           d="M 59.369,77.011 H 90.12 c 5.144,0 9.314,-4.17 9.314,-9.314 V 36.946 c 0,-5.144 -4.17,-9.314 -9.314,-9.314 H 59.369 c -5.144,0 -9.314,4.17 -9.314,9.314 v 30.751 c -10e-4,5.144 4.17,9.314 9.314,9.314 z"
           style="fill:#2d8dc9;fill-opacity:1"
           inkscape:connector-curvature="0" />
      </g>
      <path
         id="path2998"
         d="m 231.31,9.314 v 30.751 c 0,5.144 4.17,9.314 9.314,9.314 h 30.751 c 5.144,0 9.314,-4.17 9.314,-9.314 V 9.314 C 280.689,4.17 276.519,0 271.375,0 h -30.751 c -5.144,0 -9.314,4.17 -9.314,9.314 z"
         style="fill:#ffca3a;fill-opacity:1"
         inkscape:connector-curvature="0" />
      <g
         id="g3004">
        <path
           id="path3000"
           d="M 59.369,434.989 H 90.12 c 5.144,0 9.314,4.17 9.314,9.314 v 30.751 c 0,5.144 -4.17,9.314 -9.314,9.314 H 59.369 c -5.144,0 -9.314,-4.17 -9.314,-9.314 v -30.751 c -10e-4,-5.144 4.17,-9.314 9.314,-9.314 z"
           style="fill:#ff433e"
           inkscape:connector-curvature="0" />
        <path
           id="path3002"
           d="M 452.631,434.989 H 421.88 c -5.144,0 -9.314,4.17 -9.314,9.314 v 30.751 c 0,5.144 4.17,9.314 9.314,9.314 h 30.751 c 5.144,0 9.314,-4.17 9.314,-9.314 v -30.751 c 0.001,-5.144 -4.17,-9.314 -9.314,-9.314 z"
           style="fill:#2d8dc9;fill-opacity:1"
           inkscape:connector-curvature="0" />
      </g>
      <path
         id="path3006"
         d="m 280.69,502.686 v -30.751 c 0,-5.144 -4.17,-9.314 -9.314,-9.314 h -30.751 c -5.144,0 -9.314,4.17 -9.314,9.314 v 30.751 c 0,5.144 4.17,9.314 9.314,9.314 h 30.751 c 5.144,0 9.314,-4.17 9.314,-9.314 z"
         style="fill:#ffca3a;fill-opacity:1"
         inkscape:connector-curvature="0" />
      <g
         id="g3020">
        <path
           id="path3008"
           d="m 181.757,319.731 c -1.977,0 -3.955,-0.755 -5.463,-2.263 l -34.355,-34.355 c -3.018,-3.017 -3.018,-7.909 0,-10.927 l 34.355,-34.355 c 3.017,-3.017 7.909,-3.017 10.927,0 3.018,3.017 3.018,7.909 0,10.927 l -28.892,28.892 28.892,28.892 c 3.018,3.017 3.018,7.909 0,10.927 -1.51,1.507 -3.487,2.262 -5.464,2.262 z"
           style="fill:#6a4c93;fill-opacity:1"
           inkscape:connector-curvature="0" />
      </g>
      <g
         id="g3022" />
      <g
         id="g3024" />
      <g
         id="g3026" />
      <g
         id="g3028" />
      <g
         id="g3030" />
      <g
         id="g3032" />
      <g
         id="g3034" />
      <g
         id="g3036" />
      <g
         id="g3038" />
      <g
         id="g3040" />
      <g
         id="g3042" />
      <g
         id="g3044" />
      <g
         id="g3046" />
      <g
         id="g3048" />
      <g
         id="g3050" />
    </g>
    <g
       id="g3374"
       transform="matrix(0.31370122,-0.00220235,0.00220235,0.31370122,220.69057,255.5635)">
      <path
         id="path3214"
         d="M 367,172.925 H 272 242 93.53 c -7.2,0 -13.03,5.83 -13.03,13.03 v 110.97 115 h 48.26 301.74 v -177.5 -61.5 z"
         style="fill:#a08dba;fill-opacity:0.94117647"
         inkscape:connector-curvature="0" />
      <g
         id="g3220">
        <path
           id="path3216"
           d="m 430.5,234.425 v -61.5 H 367 355 v 39.53 c 0,18.731 15.239,33.97 33.97,33.97 h 41.53 z"
           style="fill:#4c5574"
           inkscape:connector-curvature="0" />
        <path
           id="path3218"
           d="m 212,185.955 c 0,-7.2 5.83,-13.03 13.03,-13.03 H 93.53 c -7.2,0 -13.03,5.83 -13.03,13.03 v 110.97 115 H 128.76 212 v -115 z"
           style="fill:#6a4c93;fill-opacity:1"
           inkscape:connector-curvature="0" />
      </g>
      <path
         id="path3222"
         d="M 367,197.925 H 272 242 111.547 c -3.34,0 -6.047,2.707 -6.047,6.047 v 176.906 c 0,3.34 2.707,6.047 6.047,6.047 h 287.906 c 3.34,0 6.047,-2.707 6.047,-6.047 V 234.425 203.972 c 0,-3.34 -2.707,-6.047 -6.047,-6.047 z"
         style="fill:#79b6dc;fill-opacity:1"
         inkscape:connector-curvature="0" />
      <path
         id="path3224"
         d="M 399.453,197.925 H 367 355 v 14.53 c 0,18.731 15.239,33.97 33.97,33.97 h 16.53 v -12 -30.453 c 0,-3.34 -2.707,-6.047 -6.047,-6.047 z"
         style="fill:#7ca1d8"
         inkscape:connector-curvature="0" />
      <path
         id="path3226"
         d="M 210,380.878 V 203.972 c 0,-3.34 2.707,-6.047 6.047,-6.047 h -104.5 c -3.34,0 -6.047,2.707 -6.047,6.047 v 176.906 c 0,3.34 2.707,6.047 6.047,6.047 h 104.5 c -3.34,0 -6.047,-2.707 -6.047,-6.047 z"
         style="fill:#2d8dc9;fill-opacity:1"
         inkscape:connector-curvature="0" />
      <path
         id="path3228"
         d="m 480.5,417.015 v 9.16 c 0,13.12 -10.63,23.75 -23.75,23.75 H 56.25 c -13.12,0 -23.75,-10.63 -23.75,-23.75 v -9.16 c 0,-2.81 2.28,-5.09 5.09,-5.09 h 437.82 c 2.81,0 5.09,2.28 5.09,5.09 z"
         style="fill:#a08dba;fill-opacity:1"
         inkscape:connector-curvature="0" />
      <path
         id="path3230"
         d="m 157.285,429.925 c -11.137,0 -20.475,-7.66 -23.046,-18 H 37.59 c -2.81,0 -5.09,2.28 -5.09,5.09 v 9.16 c 0,13.12 10.63,23.75 23.75,23.75 h 400.5 c 11.844,0 21.655,-8.663 23.453,-20 z"
         style="fill:#6a4c93;fill-opacity:1"
         inkscape:connector-curvature="0" />
      <path
         id="path3232"
         d="m 355.5,239.045 v 147.88 h -200 v -147.88 c 0,-5.04 4.08,-9.12 9.12,-9.12 h 181.76 c 5.04,0 9.12,4.08 9.12,9.12 z"
         style="fill:#474755"
         inkscape:connector-curvature="0" />
      <path
         id="path3234"
         d="m 231.12,229.925 h -66.5 c -5.04,0 -9.12,4.08 -9.12,9.12 v 147.88 H 222 v -147.88 c 0,-5.04 4.08,-9.12 9.12,-9.12 z"
         style="fill:#404251"
         inkscape:connector-curvature="0" />
      <path
         id="path3238"
         d="M 346.38,229.925 H 164.62 c -5.04,0 -9.12,4.08 -9.12,9.12 v 30.88 h 200 v -30.88 c 0,-5.04 -4.08,-9.12 -9.12,-9.12 z"
         style="fill:#ff595e;fill-opacity:1"
         inkscape:connector-curvature="0" />
      <path
         id="path3240"
         d="m 222,239.045 c 0,-5.04 4.08,-9.12 9.12,-9.12 h -66.5 c -5.04,0 -9.12,4.08 -9.12,9.12 v 30.88 H 222 Z"
         style="fill:#8c3134;fill-opacity:1"
         inkscape:connector-curvature="0" />
      <circle
         id="circle3242"
         r="5"
         cy="249.92999"
         cx="175.5"
         style="fill:#ff595e;fill-opacity:1" />
      <circle
         id="circle3244"
         r="5"
         cy="250.42999"
         cx="192"
         style="fill:#ffca3a;fill-opacity:1" />
      <circle
         id="circle3246"
         r="5"
         cy="250.92999"
         cx="208.5"
         style="fill:#8ac926;fill-opacity:1" />
      <g
         id="g3254" />
      <g
         id="g3260" />
      <g
         id="g3266">
        <circle
           id="circle3262"
           r="6.3889999"
           cy="213.75"
           cx="389.17001"
           style="fill:#000100" />
        <circle
           id="circle3264"
           r="6.3889999"
           cy="213.75"
           cx="389.17001"
           style="fill:#000100" />
      </g>
      <path
         id="path3268"
         d="m 482,194.635 v 35.65 c 0,2.29 -1.85,4.14 -4.14,4.14 h -88.89 c 4.56,0 8.79,-1.39 12.31,-3.77 1.17,-0.75 2.29,-1.62 3.34,-2.61 l 39.48,-37.55 h 33.76 c 2.29,0 4.14,1.85 4.14,4.14 z"
         style="fill:#ffd35d;fill-opacity:1"
         inkscape:connector-curvature="0" />
      <path
         id="path3274"
         d="m 469.18,160.925 c 1.57,1.66 1.51,4.28 -0.15,5.85 l -64.41,61.27 c -1.05,0.99 -2.17,1.86 -3.35,2.61 5.83,-3.95 9.66,-10.63 9.66,-18.2 v -51.05 l 27.82,-26.46 c 1.66,-1.58 4.28,-1.51 5.85,0.14 z"
         style="fill:#a9d761;fill-opacity:1"
         inkscape:connector-curvature="0" />
      <path
         id="path3278"
         d="m 202.5,347.425 h -22 c -4.142,0 -7.5,-3.358 -7.5,-7.5 0,-4.142 3.358,-7.5 7.5,-7.5 h 22 c 4.142,0 7.5,3.358 7.5,7.5 0,4.142 -3.358,7.5 -7.5,7.5 z"
         style="fill:#c5d65c"
         inkscape:connector-curvature="0" />
      <path
         id="path3280"
         d="m 255.5,370.425 h -75 c -4.142,0 -7.5,-3.358 -7.5,-7.5 0,-4.142 3.358,-7.5 7.5,-7.5 h 75 c 4.142,0 7.5,3.358 7.5,7.5 0,4.142 -3.358,7.5 -7.5,7.5 z"
         style="fill:#ff395e"
         inkscape:connector-curvature="0" />
      <path
         id="path3282"
         d="m 329.5,370.425 h -51 c -4.142,0 -7.5,-3.358 -7.5,-7.5 0,-4.142 3.358,-7.5 7.5,-7.5 h 51 c 4.142,0 7.5,3.358 7.5,7.5 0,4.142 -3.358,7.5 -7.5,7.5 z"
         style="fill:#c5d65c"
         inkscape:connector-curvature="0" />
      <path
         id="path3284"
         d="m 330.5,347.425 h -101 c -4.142,0 -7.5,-3.358 -7.5,-7.5 0,-4.142 3.358,-7.5 7.5,-7.5 h 101 c 4.142,0 7.5,3.358 7.5,7.5 0,4.142 -3.358,7.5 -7.5,7.5 z"
         style="fill:#eab430"
         inkscape:connector-curvature="0" />
      <g
         id="g3286" />
      <g
         id="g3288" />
      <g
         id="g3290" />
      <g
         id="g3292" />
      <g
         id="g3294" />
      <g
         id="g3296" />
      <g
         id="g3298" />
      <g
         id="g3300" />
      <g
         id="g3302" />
      <g
         id="g3304" />
      <g
         id="g3306" />
      <g
         id="g3308" />
      <g
         id="g3310" />
      <g
         id="g3312" />
      <g
         id="g3314" />
    </g>
    <g
       id="g3810"
       transform="matrix(0.33394109,-1.305171e-4,1.305171e-4,0.33394109,-191.64409,274.50189)">
      <path
         id="path3725"
         d="m 377.119,434.724 h -38.457 c -4.297,0 -7.781,-3.483 -7.781,-7.781 0,-4.298 3.484,-7.781 7.781,-7.781 h 38.457 c 9.487,0 17.205,-7.718 17.205,-17.205 v -40.446 c 0,-9.487 -7.718,-17.204 -17.205,-17.204 h -38.457 c -4.297,0 -7.781,-3.483 -7.781,-7.781 0,-4.298 3.484,-7.781 7.781,-7.781 h 38.457 c 18.069,0 32.768,14.7 32.768,32.767 v 40.446 c 0,18.066 -14.7,32.766 -32.768,32.766 z"
         style="fill:#bab9b9"
         inkscape:connector-curvature="0" />
      <path
         id="path3727"
         d="m 196.708,322.07 h 141.954 v 97.004 c 0,35.239 -28.566,63.805 -63.805,63.805 H 200.16 c -35.239,0 -63.805,-28.566 -63.805,-63.805 V 322.07 h 21.943 z"
         style="fill:#e0e0e0"
         inkscape:connector-curvature="0" />
      <path
         id="path3729"
         d="m 306.498,322.07 v 64.84 c 0,35.239 -28.566,63.805 -63.805,63.805 h -74.698 c -9.29,0 -18.108,-2.001 -26.07,-5.572 9.971,22.237 32.285,37.735 58.233,37.735 h 74.698 c 35.239,0 63.805,-28.566 63.805,-63.805 V 322.07 Z"
         style="opacity:0.1;enable-background:new"
         inkscape:connector-curvature="0" />
      <rect
         id="rect3731"
         height="29.698"
         width="284.79099"
         style="fill:#e0e0e0"
         y="482.30499"
         x="102.116" />
      <polygon
         id="polygon3733"
         points="373.679,498.774 102.118,498.774 102.118,512 386.905,512 386.905,482.878 373.679,482.878 "
         style="opacity:0.1;enable-background:new" />
      <g
         id="g3745"
         style="opacity:0.2" />
      <g
         id="g3747" />
      <g
         id="g3749" />
      <g
         id="g3751" />
      <g
         id="g3753" />
      <g
         id="g3755" />
      <g
         id="g3757" />
      <g
         id="g3759" />
      <g
         id="g3761" />
      <g
         id="g3763" />
      <g
         id="g3765" />
      <g
         id="g3767" />
      <g
         id="g3769" />
      <g
         id="g3771" />
      <g
         id="g3773" />
      <g
         id="g3775" />
    </g>
    <g
       id="g4172"
       transform="matrix(0.34724872,-0.09084105,0.09084105,0.34724872,200.93409,519.85733)">
      <g
         id="g4223"
         transform="matrix(1.0675601,0.27316316,-0.27316316,1.0675601,80.185026,-65.777594)">
        <g
           id="g4004">
          <rect
             x="29.844"
             y="385.48499"
             style="fill:#ebf0f3"
             width="10.583"
             height="7.0549998"
             id="rect4000" />
          <rect
             x="118.067"
             y="385.48499"
             style="fill:#ebf0f3"
             width="10.583"
             height="7.0549998"
             id="rect4002" />
        </g>
        <path
           inkscape:connector-curvature="0"
           style="fill:#65931c;fill-opacity:1"
           d="m 146.797,295.398 c 0,-1.991 -1.614,-3.605 -3.605,-3.605 H 21.151 c -1.991,0 -3.606,1.614 -3.606,3.605 v 75.009 h 129.251 v -75.009 z"
           id="path4006" />
        <path
           inkscape:connector-curvature="0"
           style="fill:#4c6e15;fill-opacity:1"
           d="m 17.546,368.249 v 15.855 c 0,2.234 1.614,4.044 3.606,4.044 h 122.04 c 1.991,0 3.605,-1.811 3.605,-4.044 v -15.855 z"
           id="path4008" />
        <rect
           x="24.596001"
           y="298.854"
           style="fill:#8cc0e1;fill-opacity:1"
           width="115.149"
           height="79.656998"
           id="rect4010" />
        <path
           inkscape:connector-curvature="0"
           style="fill:#8ac926;fill-opacity:1"
           d="m 155.059,387.586 v 8.775 c 0,3.647 -3.347,6.604 -7.476,6.604 H 16.76 c -4.129,0 -7.476,-2.957 -7.476,-6.604 v -8.775 z"
           id="path4012" />
        <g
           id="g4018">
          <path
             inkscape:connector-curvature="0"
             style="fill:#a08dba;fill-opacity:1"
             d="M 96.125,398.361 H 68.218 c -1.222,0 -2.222,-1 -2.222,-2.222 v -1.727 c 0,-1.222 1,-2.222 2.222,-2.222 h 27.907 c 1.222,0 2.222,1 2.222,2.222 v 1.727 c 0,1.222 -1,2.222 -2.222,2.222 z"
             id="path4014" />
          <circle
             style="fill:#ebf0f3"
             cx="80.471001"
             cy="295.26999"
             r="2.6270001"
             id="circle4016" />
        </g>
        <g
           id="g4024">
          <circle
             style="fill:#6a4c93;fill-opacity:1"
             cx="80.471001"
             cy="295.26999"
             r="1.592"
             id="circle4020" />
          <path
             inkscape:connector-curvature="0"
             style="fill:#6a4c93;fill-opacity:1"
             d="M 89.419,398.361 H 74.924 c -1.222,0 -2.222,-1 -2.222,-2.222 v -1.727 c 0,-1.222 1,-2.222 2.222,-2.222 H 89.42 c 1.222,0 2.222,1 2.222,2.222 v 1.727 c -10e-4,1.222 -1.001,2.222 -2.223,2.222 z"
             id="path4022" />
        </g>
        <rect
           x="219.802"
           y="387.73801"
           style="fill:#271c36;fill-opacity:0.94117647"
           width="36.807999"
           height="11.668"
           id="rect4026" />
        <path
           inkscape:connector-curvature="0"
           style="fill:#6a4c93;fill-opacity:1"
           d="m 304.024,294.516 c 0,-2.028 -1.644,-3.672 -3.672,-3.672 H 176.058 c -2.028,0 -3.672,1.644 -3.672,3.672 v 76.394 h 131.638 z"
           id="path4028" />
        <rect
           x="179.558"
           y="298.035"
           style="fill:#8cc0e1;fill-opacity:1"
           width="117.279"
           height="72.883003"
           id="rect4030" />
        <path
           inkscape:connector-curvature="0"
           style="fill:#4e386b;fill-opacity:1"
           d="m 172.386,370.91 v 14.396 c 0,2.028 1.644,3.672 3.672,3.672 h 124.294 c 2.028,0 3.672,-1.644 3.672,-3.672 V 370.91 Z"
           id="path4032" />
        <circle
           style="fill:#ffca3a;fill-opacity:1"
           cx="238.18201"
           cy="379.95499"
           r="4.9920001"
           id="circle4034" />
        <path
           inkscape:connector-curvature="0"
           style="fill:#44315e;fill-opacity:1"
           d="m 261.073,398.568 h -45.736 c -4.615,0 -8.356,3.741 -8.356,8.356 v 0 h 62.447 v 0 c 10e-4,-4.615 -3.74,-8.356 -8.355,-8.356 z"
           id="path4036" />
        <path
           inkscape:connector-curvature="0"
           style="fill:#ffca3a;fill-opacity:1"
           d="M 392.485,409.6 H 332.5 c -3.819,0 -6.915,-3.096 -6.915,-6.915 V 296.384 c 0,-3.928 3.184,-7.112 7.112,-7.112 h 60.131 c 4.136,0 7.489,3.353 7.489,7.489 v 105.008 c -0.001,4.325 -3.507,7.831 -7.832,7.831 z"
           id="path4038" />
        <path
           inkscape:connector-curvature="0"
           style="fill:#8cc0e1;fill-opacity:1"
           d="m 385.945,301.405 h -45.99 c -3.373,0 -6.107,2.734 -6.107,6.108 v 84.95 c 0,3.373 2.734,6.108 6.107,6.108 h 45.99 c 3.374,0 6.108,-2.736 6.108,-6.108 v -84.95 c 0,-3.374 -2.734,-6.108 -6.108,-6.108 z"
           id="path4040" />
        <ellipse
           style="fill:#ffffff"
           cx="359.21899"
           cy="404.01901"
           rx="3.1589999"
           ry="3.4560001"
           id="ellipse4042" />
        <ellipse
           style="fill:#ebf0f3"
           cx="359.21899"
           cy="404.01901"
           rx="2.4219999"
           ry="2.652"
           id="ellipse4044" />
        <path
           inkscape:connector-curvature="0"
           style="fill:#ff595e;fill-opacity:1"
           d="m 359.546,405.68 h -0.678 c -0.644,0 -1.168,-0.578 -1.168,-1.287 v -0.762 c 0,-0.709 0.525,-1.287 1.168,-1.287 h 0.678 c 0.644,0 1.168,0.578 1.168,1.287 v 0.762 c 0,0.709 -0.524,1.287 -1.168,1.287 z m -0.678,-2.907 c -0.429,0 -0.778,0.384 -0.778,0.857 v 0.762 c 0,0.473 0.348,0.857 0.778,0.857 h 0.678 c 0.43,0 0.778,-0.384 0.778,-0.857 v -0.762 c 0,-0.473 -0.348,-0.857 -0.778,-0.857 z"
           id="path4046" />
        <path
           inkscape:connector-curvature="0"
           style="fill:#ff595e;fill-opacity:1"
           d="m 369.385,297.541 h -16.183 c -0.311,0 -0.563,-0.252 -0.563,-0.563 v -0.438 c 0,-0.311 0.252,-0.563 0.563,-0.563 h 16.183 c 0.311,0 0.563,0.252 0.563,0.563 v 0.438 c 0.001,0.311 -0.252,0.563 -0.563,0.563 z"
           id="path4048" />
        <path
           inkscape:connector-curvature="0"
           style="fill:#ff595e;fill-opacity:1"
           d="m 220.566,275.162 c -0.01,0 -0.017,0 -0.028,0 -3.926,-0.014 -7.096,-3.208 -7.082,-7.137 l 0.267,-70.243 c 0.014,-3.916 3.194,-7.082 7.11,-7.082 0.01,0 0.017,0 0.028,0 3.926,0.014 7.096,3.208 7.082,7.137 l -0.267,70.243 c -0.014,3.916 -3.194,7.082 -7.11,7.082 z"
           id="path4050" />
        <g
           id="g4066" />
        <path
           inkscape:connector-curvature="0"
           style="fill:#ff595e;fill-opacity:1"
           d="m 369.949,275.162 c -3.926,0 -7.11,-3.18 -7.11,-7.11 V 240.044 H 89.592 c -5.391,0 -9.779,4.388 -9.779,9.776 v 18.232 c 0,3.93 -3.183,7.11 -7.11,7.11 -3.926,0 -7.11,-3.18 -7.11,-7.11 V 249.82 c 0,-13.233 10.765,-23.995 23.999,-23.995 h 287.467 v 42.228 c 0,3.929 -3.183,7.109 -7.11,7.109 z"
           id="path4078" />
      </g>
      <g
         id="g4080" />
      <g
         id="g4082" />
      <g
         id="g4084" />
      <g
         id="g4086" />
      <g
         id="g4088" />
      <g
         id="g4090" />
      <g
         id="g4092" />
      <g
         id="g4094" />
      <g
         id="g4096" />
      <g
         id="g4098" />
      <g
         id="g4100" />
      <g
         id="g4102" />
      <g
         id="g4104" />
      <g
         id="g4106" />
      <g
         id="g4108" />
    </g>
    <g
       id="g1612"
       transform="translate(-17.226334,53.864346)">
      <path
         inkscape:connector-curvature="0"
         style="fill:#ffca3a;fill-opacity:1;stroke-width:0.31370893"
         d="m 367.51744,239.65758 0.19577,27.8849 c 0.0267,3.80833 -3.0353,6.91367 -6.8405,6.94038 -3.80833,0.0267 -6.91366,-3.0353 -6.9404,-6.84363 l -0.19576,-27.8849 c -0.005,-0.71838 0.57123,-1.3028 1.2896,-1.30784 l 11.18345,-0.0785 c 0.71838,-0.005 1.3028,0.57123 1.30784,1.28961 z"
         id="path3270" />
      <path
         inkscape:connector-curvature="0"
         style="fill:#8ac926;fill-opacity:1;stroke-width:0.31370893"
         d="m 360.07145,267.59613 -0.19577,-27.8849 c -0.005,-0.71838 0.57123,-1.3028 1.2896,-1.30784 l -6.13913,0.0431 c -0.71837,0.005 -1.29465,0.58946 -1.2896,1.30784 l 0.19576,27.8849 c 0.0267,3.80833 3.13207,6.87037 6.9404,6.84363 1.10298,-0.008 2.14264,-0.27542 3.06357,-0.74274 -2.27348,-1.11279 -3.84585,-3.43957 -3.86483,-6.14399 z"
         id="path3272" />
      <circle
         style="fill:#6a4c93;fill-opacity:1;stroke-width:0.31370893"
         cx="358.9996"
         cy="270.52362"
         r="2.0042865"
         id="circle3276"
         transform="rotate(-0.40224024)" />
    </g>
  </g>
</svg>
